<svg width="192" height="137" viewBox="0 0 192 137" fill="none" xmlns="http://www.w3.org/2000/svg">
<g clip-path="url(#clip0_2039_110)">
<path d="M162.269 131.558C191.352 154.894 209.985 85.2117 163.646 72.3653C124.76 61.5513 85.6309 80.09 46.4209 123.347C46.4209 123.347 118.846 96.7581 162.269 131.559" fill="#CE9300"/>
<path d="M47.0684 122.777C74.9369 93.7494 121.276 61.3888 164.455 73.3409C174.501 76.1863 181.63 82.0412 186.248 89.0334L145.417 6.34191C139.584 -3.00872 124.678 -1.0576 116.252 6.09802L8.34443 96.8394C-1.45807 105.296 -2.02507 120.338 7.04768 129.445C15.0682 137.495 27.7874 138.226 36.6179 131.071L47.0684 122.777Z" fill="#FFD60A"/>
</g>
<defs>
<clipPath id="clip0_2039_110">
<rect width="192" height="137" fill="white"/>
</clipPath>
</defs>
</svg>
